<mxfile host="Electron" agent="Mozilla/5.0 (Macintosh; Intel Mac OS X 10_15_7) AppleWebKit/537.36 (KHTML, like Gecko) draw.io/24.7.17 Chrome/128.0.6613.36 Electron/32.0.1 Safari/537.36" version="24.7.17">
  <diagram name="Страница — 1" id="Jy3WbxoEpjstbgvxpMyO">
    <mxGraphModel dx="2283" dy="1651" grid="1" gridSize="10" guides="1" tooltips="1" connect="1" arrows="1" fold="1" page="1" pageScale="1" pageWidth="1169" pageHeight="827" math="0" shadow="0">
      <root>
        <mxCell id="0" />
        <mxCell id="1" parent="0" />
        <mxCell id="5gY9V4qFijtGJwF-r9l1-28" value="Зарегистрирована" style="edgeStyle=orthogonalEdgeStyle;rounded=0;orthogonalLoop=1;jettySize=auto;html=1;entryX=0.5;entryY=0;entryDx=0;entryDy=0;" edge="1" parent="1" source="5gY9V4qFijtGJwF-r9l1-2" target="5gY9V4qFijtGJwF-r9l1-6">
          <mxGeometry relative="1" as="geometry" />
        </mxCell>
        <mxCell id="5gY9V4qFijtGJwF-r9l1-2" value="Машина" style="swimlane;fontStyle=0;childLayout=stackLayout;horizontal=1;startSize=30;horizontalStack=0;resizeParent=1;resizeParentMax=0;resizeLast=0;collapsible=1;marginBottom=0;whiteSpace=wrap;html=1;" vertex="1" parent="1">
          <mxGeometry x="140" y="250" width="140" height="60" as="geometry" />
        </mxCell>
        <mxCell id="5gY9V4qFijtGJwF-r9l1-3" value="Номер" style="text;strokeColor=none;fillColor=none;align=left;verticalAlign=middle;spacingLeft=4;spacingRight=4;overflow=hidden;points=[[0,0.5],[1,0.5]];portConstraint=eastwest;rotatable=0;whiteSpace=wrap;html=1;" vertex="1" parent="5gY9V4qFijtGJwF-r9l1-2">
          <mxGeometry y="30" width="140" height="30" as="geometry" />
        </mxCell>
        <mxCell id="5gY9V4qFijtGJwF-r9l1-44" value="Имеет" style="edgeStyle=orthogonalEdgeStyle;rounded=0;orthogonalLoop=1;jettySize=auto;html=1;entryX=0.5;entryY=0;entryDx=0;entryDy=0;" edge="1" parent="1" source="5gY9V4qFijtGJwF-r9l1-6" target="5gY9V4qFijtGJwF-r9l1-39">
          <mxGeometry relative="1" as="geometry" />
        </mxCell>
        <mxCell id="5gY9V4qFijtGJwF-r9l1-6" value="Клиент" style="swimlane;fontStyle=0;childLayout=stackLayout;horizontal=1;startSize=30;horizontalStack=0;resizeParent=1;resizeParentMax=0;resizeLast=0;collapsible=1;marginBottom=0;whiteSpace=wrap;html=1;" vertex="1" parent="1">
          <mxGeometry x="140" y="414" width="140" height="60" as="geometry" />
        </mxCell>
        <mxCell id="5gY9V4qFijtGJwF-r9l1-7" value="Телефон" style="text;strokeColor=none;fillColor=none;align=left;verticalAlign=middle;spacingLeft=4;spacingRight=4;overflow=hidden;points=[[0,0.5],[1,0.5]];portConstraint=eastwest;rotatable=0;whiteSpace=wrap;html=1;" vertex="1" parent="5gY9V4qFijtGJwF-r9l1-6">
          <mxGeometry y="30" width="140" height="30" as="geometry" />
        </mxCell>
        <mxCell id="5gY9V4qFijtGJwF-r9l1-71" value="Описывает" style="edgeStyle=orthogonalEdgeStyle;rounded=0;orthogonalLoop=1;jettySize=auto;html=1;" edge="1" parent="1" source="5gY9V4qFijtGJwF-r9l1-14" target="5gY9V4qFijtGJwF-r9l1-33">
          <mxGeometry relative="1" as="geometry" />
        </mxCell>
        <mxCell id="5gY9V4qFijtGJwF-r9l1-80" value="Отправляется на" style="edgeStyle=orthogonalEdgeStyle;rounded=0;orthogonalLoop=1;jettySize=auto;html=1;" edge="1" parent="1" source="5gY9V4qFijtGJwF-r9l1-14" target="5gY9V4qFijtGJwF-r9l1-7">
          <mxGeometry relative="1" as="geometry" />
        </mxCell>
        <mxCell id="5gY9V4qFijtGJwF-r9l1-14" value="Сообщение" style="swimlane;fontStyle=0;childLayout=stackLayout;horizontal=1;startSize=30;horizontalStack=0;resizeParent=1;resizeParentMax=0;resizeLast=0;collapsible=1;marginBottom=0;whiteSpace=wrap;html=1;" vertex="1" parent="1">
          <mxGeometry x="410" y="-70" width="140" height="90" as="geometry" />
        </mxCell>
        <mxCell id="5gY9V4qFijtGJwF-r9l1-15" value="Текст" style="text;strokeColor=none;fillColor=none;align=left;verticalAlign=middle;spacingLeft=4;spacingRight=4;overflow=hidden;points=[[0,0.5],[1,0.5]];portConstraint=eastwest;rotatable=0;whiteSpace=wrap;html=1;" vertex="1" parent="5gY9V4qFijtGJwF-r9l1-14">
          <mxGeometry y="30" width="140" height="30" as="geometry" />
        </mxCell>
        <mxCell id="5gY9V4qFijtGJwF-r9l1-72" value="Ссылка на видео" style="text;strokeColor=none;fillColor=none;align=left;verticalAlign=middle;spacingLeft=4;spacingRight=4;overflow=hidden;points=[[0,0.5],[1,0.5]];portConstraint=eastwest;rotatable=0;whiteSpace=wrap;html=1;" vertex="1" parent="5gY9V4qFijtGJwF-r9l1-14">
          <mxGeometry y="60" width="140" height="30" as="geometry" />
        </mxCell>
        <mxCell id="5gY9V4qFijtGJwF-r9l1-50" value="Имеет" style="edgeStyle=orthogonalEdgeStyle;rounded=0;orthogonalLoop=1;jettySize=auto;html=1;" edge="1" parent="1" source="5gY9V4qFijtGJwF-r9l1-33" target="5gY9V4qFijtGJwF-r9l1-46">
          <mxGeometry relative="1" as="geometry" />
        </mxCell>
        <mxCell id="5gY9V4qFijtGJwF-r9l1-70" value="Происходит с" style="edgeStyle=orthogonalEdgeStyle;rounded=0;orthogonalLoop=1;jettySize=auto;html=1;" edge="1" parent="1" source="5gY9V4qFijtGJwF-r9l1-33" target="5gY9V4qFijtGJwF-r9l1-2">
          <mxGeometry relative="1" as="geometry" />
        </mxCell>
        <mxCell id="5gY9V4qFijtGJwF-r9l1-33" value="Событие" style="swimlane;fontStyle=0;childLayout=stackLayout;horizontal=1;startSize=30;horizontalStack=0;resizeParent=1;resizeParentMax=0;resizeLast=0;collapsible=1;marginBottom=0;whiteSpace=wrap;html=1;" vertex="1" parent="1">
          <mxGeometry x="140" y="30" width="140" height="120" as="geometry" />
        </mxCell>
        <mxCell id="5gY9V4qFijtGJwF-r9l1-34" value="Время" style="text;strokeColor=none;fillColor=none;align=left;verticalAlign=middle;spacingLeft=4;spacingRight=4;overflow=hidden;points=[[0,0.5],[1,0.5]];portConstraint=eastwest;rotatable=0;whiteSpace=wrap;html=1;" vertex="1" parent="5gY9V4qFijtGJwF-r9l1-33">
          <mxGeometry y="30" width="140" height="30" as="geometry" />
        </mxCell>
        <mxCell id="5gY9V4qFijtGJwF-r9l1-77" value="Адрес" style="text;strokeColor=none;fillColor=none;align=left;verticalAlign=middle;spacingLeft=4;spacingRight=4;overflow=hidden;points=[[0,0.5],[1,0.5]];portConstraint=eastwest;rotatable=0;whiteSpace=wrap;html=1;" vertex="1" parent="5gY9V4qFijtGJwF-r9l1-33">
          <mxGeometry y="60" width="140" height="30" as="geometry" />
        </mxCell>
        <mxCell id="5gY9V4qFijtGJwF-r9l1-65" value="Видео" style="text;strokeColor=none;fillColor=none;align=left;verticalAlign=middle;spacingLeft=4;spacingRight=4;overflow=hidden;points=[[0,0.5],[1,0.5]];portConstraint=eastwest;rotatable=0;whiteSpace=wrap;html=1;" vertex="1" parent="5gY9V4qFijtGJwF-r9l1-33">
          <mxGeometry y="90" width="140" height="30" as="geometry" />
        </mxCell>
        <mxCell id="5gY9V4qFijtGJwF-r9l1-39" value="Подписка" style="swimlane;fontStyle=0;childLayout=stackLayout;horizontal=1;startSize=30;horizontalStack=0;resizeParent=1;resizeParentMax=0;resizeLast=0;collapsible=1;marginBottom=0;whiteSpace=wrap;html=1;" vertex="1" parent="1">
          <mxGeometry x="140" y="580" width="140" height="60" as="geometry" />
        </mxCell>
        <mxCell id="5gY9V4qFijtGJwF-r9l1-40" value="Включена" style="text;strokeColor=none;fillColor=none;align=left;verticalAlign=middle;spacingLeft=4;spacingRight=4;overflow=hidden;points=[[0,0.5],[1,0.5]];portConstraint=eastwest;rotatable=0;whiteSpace=wrap;html=1;" vertex="1" parent="5gY9V4qFijtGJwF-r9l1-39">
          <mxGeometry y="30" width="140" height="30" as="geometry" />
        </mxCell>
        <mxCell id="5gY9V4qFijtGJwF-r9l1-43" value="Содержит" style="edgeStyle=orthogonalEdgeStyle;rounded=0;orthogonalLoop=1;jettySize=auto;html=1;" edge="1" parent="1" source="5gY9V4qFijtGJwF-r9l1-40" target="5gY9V4qFijtGJwF-r9l1-46">
          <mxGeometry relative="1" as="geometry" />
        </mxCell>
        <mxCell id="5gY9V4qFijtGJwF-r9l1-46" value="Тип события" style="swimlane;fontStyle=0;childLayout=stackLayout;horizontal=1;startSize=30;horizontalStack=0;resizeParent=1;resizeParentMax=0;resizeLast=0;collapsible=1;marginBottom=0;whiteSpace=wrap;html=1;" vertex="1" parent="1">
          <mxGeometry x="-180" y="60" width="140" height="60" as="geometry" />
        </mxCell>
        <mxCell id="5gY9V4qFijtGJwF-r9l1-64" value="Название" style="text;strokeColor=none;fillColor=none;align=left;verticalAlign=middle;spacingLeft=4;spacingRight=4;overflow=hidden;points=[[0,0.5],[1,0.5]];portConstraint=eastwest;rotatable=0;whiteSpace=wrap;html=1;" vertex="1" parent="5gY9V4qFijtGJwF-r9l1-46">
          <mxGeometry y="30" width="140" height="30" as="geometry" />
        </mxCell>
      </root>
    </mxGraphModel>
  </diagram>
</mxfile>
